<svg width="90" height="90" viewBox="0 0 90 90" fill="none" xmlns="http://www.w3.org/2000/svg">
<rect width="90" height="90" rx="5" fill="#1D2032"/>
<path d="M38 54H52C53.1046 54 54 53.1046 54 52V38C54 36.8954 53.1046 36 52 36H38C36.8954 36 36 36.8954 36 38V52C36 53.1046 36.8954 54 38 54ZM38 54L49 43L54 48M43 41.5C43 42.3284 42.3284 43 41.5 43C40.6716 43 40 42.3284 40 41.5C40 40.6716 40.6716 40 41.5 40C42.3284 40 43 40.6716 43 41.5Z" stroke="#ADB3CC" stroke-width="1.5" stroke-linecap="round" stroke-linejoin="round"/>
</svg>
