<svg width="156" height="36" viewBox="0 0 156 36" fill="none" xmlns="http://www.w3.org/2000/svg">
<g clip-path="url(#clip0_806_1995)">
<path d="M49.4979 33.997C47.2653 33.997 45.2333 33.5329 43.402 32.6047C41.5959 31.6515 40.1534 30.2467 39.0747 28.3903C38.0211 26.5089 37.4943 24.1885 37.4943 21.429C37.4943 19.3971 37.8079 17.5909 38.4351 16.0105C39.0622 14.405 39.9277 13.0504 41.0314 11.9466C42.1352 10.8428 43.402 10.0025 44.8319 9.42548C46.2869 8.84851 47.8297 8.56002 49.4603 8.56002C51.2413 8.56002 52.7716 8.8736 54.0509 9.50074C55.3303 10.1279 56.3714 10.8805 57.1741 11.7585L54.2767 15.1074C53.6747 14.5555 53.0099 14.1291 52.2824 13.828C51.58 13.5019 50.702 13.3389 49.6484 13.3389C48.3941 13.3389 47.2778 13.665 46.2994 14.3172C45.3211 14.9444 44.556 15.8474 44.0041 17.0265C43.4522 18.2055 43.1763 19.6103 43.1763 21.2409C43.1763 22.9216 43.4271 24.3641 43.9288 25.5682C44.4556 26.7472 45.2208 27.6503 46.2242 28.2774C47.2527 28.9046 48.5321 29.2182 50.0623 29.2182C50.564 29.2182 51.0532 29.1554 51.5298 29.03C52.0065 28.9046 52.3953 28.7164 52.6963 28.4656V24.2512H48.6324V19.7357H57.588V31.0243C56.7602 31.8522 55.6314 32.5546 54.2015 33.1315C52.7967 33.7085 51.2288 33.997 49.4979 33.997ZM61.076 33.5454V14.8816H66.6075V33.5454H61.076ZM63.8229 12.1347C62.8948 12.1347 62.1422 11.8713 61.5652 11.3445C60.9882 10.8177 60.6998 10.1153 60.6998 9.23734C60.6998 8.35934 60.9882 7.65694 61.5652 7.13014C62.1422 6.60333 62.8948 6.33993 63.8229 6.33993C64.7511 6.33993 65.5037 6.60333 66.0807 7.13014C66.6576 7.65694 66.9461 8.35934 66.9461 9.23734C66.9461 10.1153 66.6576 10.8177 66.0807 11.3445C65.5037 11.8713 64.7511 12.1347 63.8229 12.1347ZM77.5336 33.9594C75.2257 33.9594 73.57 33.2946 72.5666 31.965C71.5632 30.6104 71.0614 28.8669 71.0614 26.7347V19.2089H68.5403V15.1074L71.4001 14.8816L72.0398 9.16208H76.6305V14.8816H81.1083V19.2089H76.6305V26.6594C76.6305 27.713 76.8437 28.4781 77.2702 28.9547C77.7217 29.4063 78.3112 29.6321 79.0387 29.6321C79.3398 29.6321 79.6408 29.607 79.9418 29.5568C80.2428 29.5066 80.5313 29.4314 80.8073 29.331L81.7104 33.2068C81.2337 33.4075 80.6317 33.5831 79.9042 33.7336C79.2018 33.8841 78.4116 33.9594 77.5336 33.9594ZM84.0739 33.5454V9.01157H89.8687L96.1527 21.0904C96.6042 21.9182 97.0182 22.8087 97.3944 23.762C97.7958 24.6902 98.1846 25.6434 98.5609 26.6218H98.7114C98.586 25.2922 98.4355 23.8373 98.2599 22.2569C98.0843 20.6764 97.9965 19.1588 97.9965 17.7038V9.01157H103.302V33.5454H97.5073L91.2233 21.4666C90.7969 20.6388 90.3704 19.7483 89.944 18.795C89.5426 17.8418 89.1538 16.8885 88.7775 15.9352H88.627C88.7775 17.2899 88.9405 18.7574 89.1161 20.3378C89.2917 21.8931 89.3795 23.3983 89.3795 24.8532V33.5454H84.0739ZM115.533 33.997C113.953 33.997 112.472 33.6207 111.093 32.8681C109.713 32.0905 108.584 30.9742 107.706 29.5192C106.853 28.0391 106.427 26.2706 106.427 24.2135C106.427 22.1565 106.853 20.4005 107.706 18.9455C108.584 17.4655 109.713 16.3492 111.093 15.5966C112.472 14.8189 113.953 14.4301 115.533 14.4301C117.088 14.4301 118.556 14.8189 119.935 15.5966C121.315 16.3492 122.431 17.4655 123.284 18.9455C124.162 20.4005 124.601 22.1565 124.601 24.2135C124.601 26.2706 124.162 28.0391 123.284 29.5192C122.431 30.9742 121.315 32.0905 119.935 32.8681C118.556 33.6207 117.088 33.997 115.533 33.997ZM115.533 29.5192C116.285 29.5192 116.913 29.306 117.414 28.8795C117.941 28.453 118.33 27.8384 118.581 27.0357C118.832 26.2329 118.957 25.2922 118.957 24.2135C118.957 23.1349 118.832 22.1941 118.581 21.3914C118.33 20.5886 117.941 19.974 117.414 19.5476C116.913 19.1211 116.285 18.9079 115.533 18.9079C114.755 18.9079 114.116 19.1211 113.614 19.5476C113.112 19.974 112.736 20.5886 112.485 21.3914C112.234 22.1941 112.109 23.1349 112.109 24.2135C112.109 25.2922 112.234 26.2329 112.485 27.0357C112.736 27.8384 113.112 28.453 113.614 28.8795C114.116 29.306 114.755 29.5192 115.533 29.5192ZM133.456 33.9594C131.148 33.9594 129.493 33.2946 128.489 31.965C127.486 30.6104 126.984 28.8669 126.984 26.7347V19.2089H124.463V15.1074L127.323 14.8816L127.962 9.16208H132.553V14.8816H137.031V19.2089H132.553V26.6594C132.553 27.713 132.766 28.4781 133.193 28.9547C133.644 29.4063 134.234 29.6321 134.961 29.6321C135.262 29.6321 135.563 29.607 135.864 29.5568C136.165 29.5066 136.454 29.4314 136.73 29.331L137.633 33.2068C137.156 33.4075 136.554 33.5831 135.827 33.7336C135.124 33.8841 134.334 33.9594 133.456 33.9594ZM147.237 33.997C145.456 33.997 143.851 33.6082 142.421 32.8305C140.991 32.0528 139.862 30.9365 139.034 29.4816C138.206 28.0266 137.792 26.2706 137.792 24.2135C137.792 22.1816 138.206 20.4381 139.034 18.9832C139.887 17.5282 140.991 16.4119 142.345 15.6342C143.7 14.8315 145.117 14.4301 146.597 14.4301C148.379 14.4301 149.859 14.8315 151.038 15.6342C152.217 16.4119 153.095 17.478 153.672 18.8326C154.249 20.1873 154.537 21.705 154.537 23.3857C154.537 23.8623 154.512 24.339 154.462 24.8156C154.412 25.2671 154.361 25.6309 154.311 25.9068H142.082L142.007 22.0687H149.796C149.796 21.0904 149.558 20.2876 149.081 19.6605C148.604 19.0082 147.814 18.6821 146.71 18.6821C146.108 18.6821 145.519 18.8452 144.942 19.1713C144.365 19.4974 143.888 20.0618 143.512 20.8646C143.136 21.6673 142.96 22.7837 142.985 24.2135C143.01 25.6183 143.261 26.7221 143.738 27.5249C144.239 28.3276 144.866 28.9046 145.619 29.2558C146.372 29.5819 147.162 29.745 147.99 29.745C148.717 29.745 149.407 29.6446 150.059 29.4439C150.737 29.2182 151.401 28.9171 152.054 28.5408L153.86 31.9274C152.932 32.5796 151.878 33.0939 150.699 33.4702C149.52 33.8214 148.366 33.997 147.237 33.997Z" fill="white"/>
<path d="M23.2002 12.4362H30.7277L22.0439 3.92711V11.3032C22.0439 11.9275 22.5631 12.4362 23.2002 12.4362Z" fill="#42BBFF"/>
<path d="M23.0544 12.9697C21.9035 12.9697 20.9783 12.0494 20.9783 10.9046V3.27274H5.18142C4.52698 3.27274 4.00793 3.78901 4.00793 4.46241V12.5881H11.3196C11.455 12.5881 11.5453 12.4759 11.5453 12.3636V10.9944C11.5453 10.7924 11.771 10.6801 11.9064 10.8148L15.4268 13.4635C15.5396 13.5533 15.5396 13.7329 15.4268 13.8227L11.9064 16.4938C11.771 16.6061 11.5453 16.4938 11.5453 16.3143V14.9226C11.5453 14.8103 11.455 14.6981 11.3196 14.6981H4.00793V18.1998H15.5396C15.6525 18.1998 15.7653 18.11 15.7653 17.9753V16.6061C15.7653 16.4265 15.9684 16.3143 16.1264 16.4265L19.6242 19.0752C19.7596 19.1874 19.7596 19.367 19.6242 19.4568L16.1264 22.1055C15.9684 22.2177 15.7653 22.1055 15.7653 21.9259V20.5567C15.7653 20.422 15.6525 20.3322 15.5396 20.3322H4.00793V23.8339H19.7371C19.8725 23.8339 19.9627 23.7217 19.9627 23.6094V22.2177C19.9627 22.0382 20.1884 21.9259 20.3464 22.0382L23.8443 24.7093C23.9571 24.7991 23.9571 24.9787 23.8443 25.0685L20.3464 27.7172C20.1884 27.8519 19.9627 27.7396 19.9627 27.5376V26.1684C19.9627 26.0561 19.8725 25.9439 19.7371 25.9439H4.00793V29.4456H23.9571C24.0699 29.4456 24.1828 29.3558 24.1828 29.2211V27.8519C24.1828 27.6498 24.4084 27.5601 24.5438 27.6723L28.0417 30.321C28.1771 30.4108 28.1771 30.5904 28.0417 30.6801L24.5438 33.3513C24.4084 33.4635 24.1828 33.3513 24.1828 33.1717V31.8025C24.1828 31.6678 24.0699 31.5556 23.9571 31.5556H4.00793V34.8103C4.00793 35.4837 4.52698 36 5.18142 36H29.5537C30.2081 36 30.7272 35.4837 30.7272 34.8103V12.9697H23.0544Z" fill="url(#paint0_linear_806_1995)"/>
<path d="M2.52977 1.55737H21.3754V0H2.20484C0.997982 0 0 0.947962 0 2.1442V32.7273H1.60142V2.46019C1.60142 1.96364 2.01918 1.55737 2.52977 1.55737Z" fill="#2E3757"/>
</g>
<defs>
<linearGradient id="paint0_linear_806_1995" x1="4.00793" y1="17.2121" x2="30.7272" y2="17.2121" gradientUnits="userSpaceOnUse">
<stop stop-color="#43B7FE"/>
<stop offset="1" stop-color="#4F48E6"/>
</linearGradient>
<clipPath id="clip0_806_1995">
<rect width="156" height="36" fill="white"/>
</clipPath>
</defs>
</svg>
